<svg id="Capa_1" data-name="Capa 1" xmlns="http://www.w3.org/2000/svg" viewBox="0 0 512 512"><defs><style>.cls-1{fill:#fff;}</style></defs><path class="cls-1" d="M447.62,140c-.72,1.83-1.33,3.72-2.19,5.48-3.93,8-10.3,12.6-19.26,13.44-1,.09-2,.12-3,.12Q256.08,159,89,159c-11.89,0-21.09-6.75-23.8-17.23-3.78-14.58,6.51-28.46,21.74-29.32,1.49-.08,3,0,4.49,0H418.87c16.92,0,22.61,3.83,28.75,19.33Z"/><path class="cls-1" d="M447.64,380.25a65,65,0,0,1-2.79,6.85c-4.54,8.3-11.76,12.31-21.11,12.44s-18.46,0-27.69,0H89.54c-13.06,0-22.45-7.37-24.79-19.36-2.46-12.66,7-25.56,19.78-27a60.21,60.21,0,0,1,6.72-.26H418.72c17.2,0,22.37,3.41,28.92,19Z"/><path class="cls-1" d="M447.69,259.73c-.48,1.4-.95,2.81-1.46,4.21a23,23,0,0,1-21.08,15.25c-6.86.15-13.72.06-20.58.06q-157.15,0-314.32.05c-7.63,0-14.36-1.78-19.55-7.55-6.52-7.26-8.18-15.7-4.4-24.66s10.82-13.75,20.59-14.32c1.62-.1,3.24,0,4.86,0,109.14,0,218.28.15,327.42-.17,16.25-.05,25.42,7.11,28.52,19.69Z"/></svg>